<svg xmlns="http://www.w3.org/2000/svg" xmlns:xlink="http://www.w3.org/1999/xlink" aria-hidden="true" role="img" class="iconify iconify--fa-solid" width="32" height="32" preserveAspectRatio="xMidYMid meet" viewBox="0 0 512 512"><path d="M448 96v320h32a16 16 0 0 1 16 16v32a16 16 0 0 1-16 16H320a16 16 0 0 1-16-16v-32a16 16 0 0 1 16-16h32V288H160v128h32a16 16 0 0 1 16 16v32a16 16 0 0 1-16 16H32a16 16 0 0 1-16-16v-32a16 16 0 0 1 16-16h32V96H32a16 16 0 0 1-16-16V48a16 16 0 0 1 16-16h160a16 16 0 0 1 16 16v32a16 16 0 0 1-16 16h-32v128h192V96h-32a16 16 0 0 1-16-16V48a16 16 0 0 1 16-16h160a16 16 0 0 1 16 16v32a16 16 0 0 1-16 16z" fill="currentColor"></path></svg>