<svg xmlns="http://www.w3.org/2000/svg" xmlns:xlink="http://www.w3.org/1999/xlink" aria-hidden="true" role="img" class="iconify iconify--ic" width="32" height="32" preserveAspectRatio="xMidYMid meet" viewBox="0 0 24 24"><path fill="currentColor" d="M8.94 16.56c.29.29.68.44 1.06.44s.77-.15 1.06-.44l5.5-5.5c.59-.58.59-1.53 0-2.12L8.32.7a.996.996 0 1 0-1.41 1.41l1.68 1.68l-5.15 5.15a1.49 1.49 0 0 0 0 2.12l5.5 5.5zM10 5.21L14.79 10H5.21L10 5.21zM19 17c1.1 0 2-.9 2-2c0-1.33-2-3.5-2-3.5s-2 2.17-2 3.5c0 1.1.9 2 2 2zm1 3H4c-1.1 0-2 .9-2 2s.9 2 2 2h16c1.1 0 2-.9 2-2s-.9-2-2-2z"></path></svg>