<svg xmlns="http://www.w3.org/2000/svg" xmlns:xlink="http://www.w3.org/1999/xlink" aria-hidden="true" role="img" class="iconify iconify--jam" width="35.56" height="32" preserveAspectRatio="xMidYMid meet" viewBox="0 0 20 18"><g fill="currentColor"><path d="M3.01 14a1 1 0 0 1 .988 1h12.004a1 1 0 0 1 1-1V4a1 1 0 0 1-1-1H4.01a1 1 0 0 1-1 1v10zm.988 3a1 1 0 0 1-1 1H1a1 1 0 0 1-1-1v-2a1 1 0 0 1 1-1h.01V4a1 1 0 0 1-.998-1V1a1 1 0 0 1 .999-1H3.01a1 1 0 0 1 1 1h11.992a1 1 0 0 1 1-1H19a1 1 0 0 1 1 1v2a1 1 0 0 1-1 1v10a1 1 0 0 1 1 1v2a1 1 0 0 1-1 1h-1.998a1 1 0 0 1-1-1H3.998z"></path></g></svg>