<svg data-v-423bf9ae="" xmlns="http://www.w3.org/2000/svg" viewBox="0 0 473 90" class="iconLeft"><!----><!----><!----><g data-v-423bf9ae="" id="734187eb-dfbf-49d5-849c-4682167a0835" fill="white" transform="matrix(5.672836063674344,0,0,5.672836063674344,116.81864766472984,14.641025506169836)"><path d="M6.43 2.23L6.43 2.23L3.46 2.23C3.19 2.23 2.98 2.42 2.98 2.69L2.98 4.56C2.98 4.82 3.19 5.03 3.46 5.03L5.56 5.03C5.82 5.03 6.03 4.82 6.03 4.56C6.03 4.30 5.82 4.09 5.56 4.09L3.92 4.09L3.92 3.15L6.43 3.15C6.69 3.15 6.90 2.94 6.90 2.69C6.90 2.42 6.69 2.23 6.43 2.23ZM5.56 5.96L5.56 5.96L3.46 5.96C3.19 5.96 2.98 6.17 2.98 6.43L2.98 8.30C2.98 8.55 3.19 8.76 3.46 8.76L6.43 8.76C6.69 8.76 6.90 8.55 6.90 8.30C6.90 8.04 6.69 7.83 6.43 7.83L3.92 7.83L3.92 6.90L5.56 6.90C5.82 6.90 6.03 6.69 6.03 6.43C6.03 6.17 5.82 5.96 5.56 5.96ZM6.43 9.70L6.43 9.70L2.06 9.70L2.06 1.29L6.43 1.29C6.69 1.29 6.90 1.08 6.90 0.81C6.90 0.56 6.69 0.35 6.43 0.35L1.58 0.35C1.33 0.35 1.12 0.56 1.12 0.81L1.12 10.18C1.12 10.43 1.33 10.64 1.58 10.64L6.43 10.64C6.69 10.64 6.90 10.43 6.90 10.18C6.90 9.91 6.69 9.70 6.43 9.70ZM14.70 9.70L14.70 9.70L9.72 9.70L9.72 0.81C9.72 0.56 9.51 0.35 9.25 0.35C8.99 0.35 8.78 0.56 8.78 0.81L8.78 10.18C8.78 10.43 8.99 10.64 9.25 10.64L14.70 10.64C14.97 10.64 15.16 10.43 15.16 10.18C15.16 9.91 14.97 9.70 14.70 9.70ZM10.65 0.81L10.65 0.81L10.65 8.30C10.65 8.55 10.86 8.76 11.12 8.76L14.70 8.76C14.97 8.76 15.16 8.55 15.16 8.30C15.16 8.04 14.97 7.83 14.70 7.83L11.59 7.83L11.59 0.81C11.59 0.56 11.38 0.35 11.12 0.35C10.86 0.35 10.65 0.56 10.65 0.81ZM23.06 2.23L23.06 2.23L20.71 2.23C20.45 2.23 20.24 2.44 20.24 2.70L20.24 10.16C20.24 10.43 20.45 10.64 20.71 10.64C20.97 10.64 21.18 10.43 21.18 10.16L21.18 3.15L23.06 3.15C23.31 3.15 23.51 2.95 23.51 2.70C23.51 2.44 23.31 2.23 23.06 2.23ZM16.52 1.29L16.52 1.29L23.06 1.29C23.31 1.29 23.51 1.08 23.51 0.83C23.51 0.56 23.31 0.36 23.06 0.36L16.52 0.36C16.25 0.36 16.04 0.56 16.04 0.83C16.04 1.08 16.25 1.29 16.52 1.29ZM16.52 3.15L16.52 3.15L18.37 3.15L18.37 10.16C18.37 10.43 18.59 10.64 18.84 10.64C19.11 10.64 19.32 10.43 19.32 10.16L19.32 2.70C19.32 2.44 19.11 2.23 18.84 2.23L16.52 2.23C16.25 2.23 16.04 2.44 16.04 2.70C16.04 2.95 16.25 3.15 16.52 3.15ZM27.83 10.18L27.83 10.18L27.83 0.81C27.83 0.56 27.62 0.35 27.37 0.35C27.10 0.35 26.89 0.56 26.89 0.81L26.89 10.18C26.89 10.43 27.10 10.64 27.37 10.64C27.62 10.64 27.83 10.43 27.83 10.18ZM25.96 10.18L25.96 10.18L25.96 0.81C25.96 0.56 25.75 0.35 25.49 0.35C25.23 0.35 25.02 0.56 25.02 0.81L25.02 10.18C25.02 10.43 25.23 10.64 25.49 10.64C25.75 10.64 25.96 10.43 25.96 10.18ZM34.08 5.03L34.08 5.03C35.95 5.03 35.95 2.23 34.08 2.23L32.42 2.23C31.81 2.23 31.81 3.16 32.42 3.16L34.08 3.16C34.72 3.16 34.72 4.10 34.08 4.10C33.71 4.10 33.08 3.99 33.08 4.56C33.08 5.12 33.71 5.03 34.08 5.03ZM31.02 10.16L31.02 10.16L31.02 1.29L34.24 1.29C37.25 1.29 37.25 5.96 34.24 5.96L32.42 5.96C32.17 5.96 31.95 6.17 31.95 6.43L31.95 10.16C31.95 10.78 32.90 10.78 32.90 10.16L32.90 6.90L34.24 6.90C38.47 6.90 38.49 0.36 34.24 0.36L30.55 0.36C30.30 0.36 30.09 0.56 30.09 0.84L30.09 10.16C30.09 10.78 31.02 10.78 31.02 10.16ZM45.18 2.23L45.18 2.23L42.83 2.23C42.57 2.23 42.36 2.44 42.36 2.70L42.36 10.16C42.36 10.43 42.57 10.64 42.83 10.64C43.09 10.64 43.30 10.43 43.30 10.16L43.30 3.15L45.18 3.15C45.43 3.15 45.63 2.95 45.63 2.70C45.63 2.44 45.43 2.23 45.18 2.23ZM38.64 1.29L38.64 1.29L45.18 1.29C45.43 1.29 45.63 1.08 45.63 0.83C45.63 0.56 45.43 0.36 45.18 0.36L38.64 0.36C38.37 0.36 38.16 0.56 38.16 0.83C38.16 1.08 38.37 1.29 38.64 1.29ZM38.64 3.15L38.64 3.15L40.49 3.15L40.49 10.16C40.49 10.43 40.71 10.64 40.96 10.64C41.23 10.64 41.44 10.43 41.44 10.16L41.44 2.70C41.44 2.44 41.23 2.23 40.96 2.23L38.64 2.23C38.37 2.23 38.16 2.44 38.16 2.70C38.16 2.95 38.37 3.15 38.64 3.15ZM48.96 7.84L48.96 7.84L50.32 7.84C50.58 7.84 50.81 7.63 50.81 7.36C50.81 7.29 50.79 7.24 50.76 7.18L50.08 5.50C49.98 5.28 49.71 5.17 49.46 5.26C49.24 5.35 49.13 5.63 49.21 5.87L49.63 6.90L48.96 6.90C48.71 6.90 48.50 7.10 48.50 7.36C48.50 7.63 48.71 7.84 48.96 7.84ZM48.27 10.26L48.27 10.26L48.51 9.72L50.78 9.72L51.00 10.26C51.10 10.51 51.38 10.61 51.62 10.53C51.86 10.42 51.95 10.15 51.87 9.91L51.53 9.10C51.48 8.92 51.30 8.76 51.09 8.76L48.19 8.76L48.19 8.76C48.02 8.76 47.84 8.89 47.75 9.06L47.42 9.91C47.32 10.15 47.43 10.42 47.67 10.53C47.92 10.61 48.19 10.50 48.27 10.26ZM46.27 10.26L46.27 10.26L49.64 1.76L53.02 10.26C53.12 10.50 53.40 10.61 53.63 10.53C53.87 10.42 53.98 10.15 53.89 9.91L50.08 0.36C50.04 0.25 49.95 0.14 49.81 0.10C49.59 0 49.31 0.11 49.21 0.36L45.39 9.91C45.30 10.15 45.43 10.42 45.65 10.53C45.89 10.61 46.16 10.50 46.27 10.26ZM59.32 5.03L59.32 5.03C61.19 5.03 61.19 2.23 59.32 2.23L57.67 2.23C57.05 2.23 57.05 3.16 57.67 3.16L59.32 3.16C59.96 3.16 59.96 4.10 59.32 4.10C58.95 4.10 58.32 3.99 58.32 4.56C58.32 5.12 58.95 5.03 59.32 5.03ZM56.27 10.16L56.27 10.16L56.27 1.29L59.49 1.29C62.50 1.29 62.50 5.96 59.49 5.96L57.67 5.96C57.41 5.96 57.19 6.17 57.19 6.43L57.19 10.16C57.19 10.78 58.14 10.78 58.14 10.16L58.14 6.90L59.49 6.90C63.71 6.90 63.73 0.36 59.49 0.36L55.79 0.36C55.54 0.36 55.33 0.56 55.33 0.84L55.33 10.16C55.33 10.78 56.27 10.78 56.27 10.16Z"></path></g><!----><g data-v-423bf9ae="" id="bceccb66-196e-4a34-a385-c00d4dd9689c" transform="matrix(1.1492908610542842,0,0,1.1492908610542842,-5.292205794714732,-5.89437708629729)" stroke="none" fill="white"><path d="M72.3 47.4s3-18.1-1.8-25.7c0 0-.9-6.1 18-7.9 0 0-4-13.5-32.3-5 0 0-2.9 1.6-7.4-.3 0 0-16.2-3.6-26 .8 0 0-4.5 2.1-7.2 6-1.2 1.2-2.2 2.6-3.1 4.1-1.7 3.1-2.4 6.5-2.2 9.6-3.8 2.5-6 4.7-5.5 5.8.2.5 1 .7 2.2.6-.3.4-.4.7-.3 1 .3.7 2.6.3 6-.8.8 1 1.8 1.9 3 2.6 2.7 1.5 5.9 1.5 8.9.3v.2c.1-.1.1-.2.1-.2s10.2 10.2 14.2 11.3c4 1.2-2.1-6.9-2.1-6.9l-2.7-3.4s-1.1-1.4 14.1-1.8c0 0 17.5 8 16.2 14.9-1.3 6.9.5 13.7.5 13.7s2.5 8.4 4.3 2.5c1.8-5.9 3.5-13.1 9.7-11.7 6.2 1.4 15.6 3.7 15.6 3.7s-5-15.7-22.2-13.4zM85.3 81.7c-3.7 0-7-1.7-9.2-4.4-2.2 3-5.7 4.9-9.7 4.9-3.3 0-6.3-1.3-8.5-3.5-2.2 2.1-5.1 3.4-8.3 3.4-3.7 0-7-1.7-9.2-4.3-2.2 2.3-5.3 3.8-8.7 3.8-3.3 0-6.3-1.3-8.4-3.5-2.2 2.5-5.4 4-8.9 4-3.2 0-6.2-1.3-8.3-3.4 2.1 3.4 5.9 5.6 10.1 5.6 3.3 0 6.2-1.3 8.4-3.4 2.2 2.1 5.1 3.4 8.4 3.4 3.3 0 6.2-1.3 8.4-3.4 2.2 2.1 5.1 3.4 8.4 3.4 3.3 0 6.2-1.3 8.4-3.4 2.2 2.1 5.1 3.4 8.4 3.4 3.3 0 6.2-1.3 8.4-3.4 2.2 2.1 5.1 3.4 8.4 3.4 4.6 0 8.5-2.5 10.5-6.3-2.2 2.3-5.2 3.7-8.6 3.7z"></path></g><!----></svg>